<svg id="visual" viewBox="0 0 960 540" width="960" height="540" xmlns="http://www.w3.org/2000/svg" xmlns:xlink="http://www.w3.org/1999/xlink" version="1.1"><rect x="0" y="0" width="960" height="540" fill="#88A550"></rect><g transform="translate(941.8220983130174 10.675945162650862)"><path d="M312.2 -369.3C392.9 -304.3 438.7 -194.8 444.4 -89.2C450 16.4 415.5 118.2 363.7 211.8C311.8 305.5 242.6 390.9 155.7 418.7C68.7 446.4 -35.9 416.3 -137.1 378.6C-238.3 341 -336.1 295.7 -379.2 219.6C-422.2 143.6 -410.5 36.6 -391.8 -69C-373 -174.6 -347.2 -278.8 -280.7 -346.4C-214.3 -414 -107.1 -445 4.3 -450.1C115.7 -455.2 231.4 -434.4 312.2 -369.3" fill="#a4c16a"></path></g></svg>