<svg id="visual" viewBox="0 0 1920 900" width="1920" height="900" xmlns="http://www.w3.org/2000/svg" xmlns:xlink="http://www.w3.org/1999/xlink" version="1.1"><rect x="0" y="0" width="1920" height="900" fill="#282623"></rect><path d="M816 0L819.7 10.7C823.3 21.3 830.7 42.7 824.5 64.2C818.3 85.7 798.7 107.3 815.7 128.8C832.7 150.3 886.3 171.7 898.3 193C910.3 214.3 880.7 235.7 879 257C877.3 278.3 903.7 299.7 895.2 321.2C886.7 342.7 843.3 364.3 834.2 385.8C825 407.3 850 428.7 842.8 450C835.7 471.3 796.3 492.7 789.3 514.2C782.3 535.7 807.7 557.3 840 578.8C872.3 600.3 911.7 621.7 929.2 643C946.7 664.3 942.3 685.7 904.8 707C867.3 728.3 796.7 749.7 759.5 771.2C722.3 792.7 718.7 814.3 721.2 835.8C723.7 857.3 732.3 878.7 736.7 889.3L741 900L0 900L0 889.3C0 878.7 0 857.3 0 835.8C0 814.3 0 792.7 0 771.2C0 749.7 0 728.3 0 707C0 685.7 0 664.3 0 643C0 621.7 0 600.3 0 578.8C0 557.3 0 535.7 0 514.2C0 492.7 0 471.3 0 450C0 428.7 0 407.3 0 385.8C0 364.3 0 342.7 0 321.2C0 299.7 0 278.3 0 257C0 235.7 0 214.3 0 193C0 171.7 0 150.3 0 128.8C0 107.3 0 85.7 0 64.2C0 42.7 0 21.3 0 10.7L0 0Z" fill="#fcce4a"></path><path d="M662 0L703.8 10.7C745.7 21.3 829.3 42.7 857 64.2C884.7 85.7 856.3 107.3 807 128.8C757.7 150.3 687.3 171.7 681.8 193C676.3 214.3 735.7 235.7 770 257C804.3 278.3 813.7 299.7 796.2 321.2C778.7 342.7 734.3 364.3 730.3 385.8C726.3 407.3 762.7 428.7 787.5 450C812.3 471.3 825.7 492.7 810.7 514.2C795.7 535.7 752.3 557.3 741.8 578.8C731.3 600.3 753.7 621.7 780.3 643C807 664.3 838 685.7 806.3 707C774.7 728.3 680.3 749.7 660.2 771.2C640 792.7 694 814.3 736.8 835.8C779.7 857.3 811.3 878.7 827.2 889.3L843 900L0 900L0 889.3C0 878.7 0 857.3 0 835.8C0 814.3 0 792.7 0 771.2C0 749.7 0 728.3 0 707C0 685.7 0 664.3 0 643C0 621.7 0 600.3 0 578.8C0 557.3 0 535.7 0 514.2C0 492.7 0 471.3 0 450C0 428.7 0 407.3 0 385.8C0 364.3 0 342.7 0 321.2C0 299.7 0 278.3 0 257C0 235.7 0 214.3 0 193C0 171.7 0 150.3 0 128.8C0 107.3 0 85.7 0 64.2C0 42.7 0 21.3 0 10.7L0 0Z" fill="#edca49"></path><path d="M485 0L488.2 10.7C491.3 21.3 497.7 42.7 512.8 64.2C528 85.7 552 107.3 549.3 128.8C546.7 150.3 517.3 171.7 507.8 193C498.3 214.3 508.7 235.7 536.5 257C564.3 278.3 609.7 299.7 655.8 321.2C702 342.7 749 364.3 730 385.8C711 407.3 626 428.7 623.7 450C621.3 471.3 701.7 492.7 745.3 514.2C789 535.7 796 557.3 797.2 578.8C798.3 600.3 793.7 621.7 797.7 643C801.7 664.3 814.3 685.7 791.7 707C769 728.3 711 749.7 663.7 771.2C616.3 792.7 579.7 814.3 581.7 835.8C583.7 857.3 624.3 878.7 644.7 889.3L665 900L0 900L0 889.3C0 878.7 0 857.3 0 835.8C0 814.3 0 792.7 0 771.2C0 749.7 0 728.3 0 707C0 685.7 0 664.3 0 643C0 621.7 0 600.3 0 578.8C0 557.3 0 535.7 0 514.2C0 492.7 0 471.3 0 450C0 428.7 0 407.3 0 385.8C0 364.3 0 342.7 0 321.2C0 299.7 0 278.3 0 257C0 235.7 0 214.3 0 193C0 171.7 0 150.3 0 128.8C0 107.3 0 85.7 0 64.2C0 42.7 0 21.3 0 10.7L0 0Z" fill="#dfc749"></path><path d="M477 0L504.3 10.7C531.7 21.3 586.3 42.7 627.5 64.2C668.7 85.7 696.3 107.3 687.7 128.8C679 150.3 634 171.7 600.2 193C566.3 214.3 543.7 235.7 538.3 257C533 278.3 545 299.7 529.5 321.2C514 342.7 471 364.3 473.8 385.8C476.7 407.3 525.3 428.7 535.5 450C545.7 471.3 517.3 492.7 502.8 514.2C488.3 535.7 487.7 557.3 519.5 578.8C551.3 600.3 615.7 621.7 654.8 643C694 664.3 708 685.7 702.7 707C697.3 728.3 672.7 749.7 628.2 771.2C583.7 792.7 519.3 814.3 501.5 835.8C483.7 857.3 512.3 878.7 526.7 889.3L541 900L0 900L0 889.3C0 878.7 0 857.3 0 835.8C0 814.3 0 792.7 0 771.2C0 749.7 0 728.3 0 707C0 685.7 0 664.3 0 643C0 621.7 0 600.3 0 578.8C0 557.3 0 535.7 0 514.2C0 492.7 0 471.3 0 450C0 428.7 0 407.3 0 385.8C0 364.3 0 342.7 0 321.2C0 299.7 0 278.3 0 257C0 235.7 0 214.3 0 193C0 171.7 0 150.3 0 128.8C0 107.3 0 85.7 0 64.2C0 42.7 0 21.3 0 10.7L0 0Z" fill="#d1c349"></path><path d="M508 0L496.7 10.7C485.3 21.3 462.7 42.7 484.2 64.2C505.7 85.7 571.3 107.3 578.5 128.8C585.7 150.3 534.3 171.7 502.8 193C471.3 214.3 459.7 235.7 476 257C492.3 278.3 536.7 299.7 527.7 321.2C518.7 342.7 456.3 364.3 458.2 385.8C460 407.3 526 428.7 552.2 450C578.3 471.3 564.7 492.7 572.2 514.2C579.7 535.7 608.3 557.3 605 578.8C601.7 600.3 566.3 621.7 551.7 643C537 664.3 543 685.7 528.7 707C514.3 728.3 479.7 749.7 482.2 771.2C484.7 792.7 524.3 814.3 527.5 835.8C530.7 857.3 497.3 878.7 480.7 889.3L464 900L0 900L0 889.3C0 878.7 0 857.3 0 835.8C0 814.3 0 792.7 0 771.2C0 749.7 0 728.3 0 707C0 685.7 0 664.3 0 643C0 621.7 0 600.3 0 578.8C0 557.3 0 535.7 0 514.2C0 492.7 0 471.3 0 450C0 428.7 0 407.3 0 385.8C0 364.3 0 342.7 0 321.2C0 299.7 0 278.3 0 257C0 235.7 0 214.3 0 193C0 171.7 0 150.3 0 128.8C0 107.3 0 85.7 0 64.2C0 42.7 0 21.3 0 10.7L0 0Z" fill="#c4be4a"></path><path d="M354 0L376.2 10.7C398.3 21.3 442.7 42.7 471.3 64.2C500 85.7 513 107.3 514.8 128.8C516.7 150.3 507.3 171.7 490.8 193C474.3 214.3 450.7 235.7 429.3 257C408 278.3 389 299.7 391.8 321.2C394.7 342.7 419.3 364.3 416.2 385.8C413 407.3 382 428.7 370.5 450C359 471.3 367 492.7 387 514.2C407 535.7 439 557.3 446.5 578.8C454 600.3 437 621.7 444.8 643C452.7 664.3 485.3 685.7 498.7 707C512 728.3 506 749.7 481.8 771.2C457.7 792.7 415.3 814.3 404.7 835.8C394 857.3 415 878.7 425.5 889.3L436 900L0 900L0 889.3C0 878.7 0 857.3 0 835.8C0 814.3 0 792.7 0 771.2C0 749.7 0 728.3 0 707C0 685.7 0 664.3 0 643C0 621.7 0 600.3 0 578.8C0 557.3 0 535.7 0 514.2C0 492.7 0 471.3 0 450C0 428.7 0 407.3 0 385.8C0 364.3 0 342.7 0 321.2C0 299.7 0 278.3 0 257C0 235.7 0 214.3 0 193C0 171.7 0 150.3 0 128.8C0 107.3 0 85.7 0 64.2C0 42.7 0 21.3 0 10.7L0 0Z" fill="#b7ba4b"></path><path d="M319 0L323.7 10.7C328.3 21.3 337.7 42.7 349.8 64.2C362 85.7 377 107.3 383.5 128.8C390 150.3 388 171.7 368.8 193C349.7 214.3 313.3 235.7 311.7 257C310 278.3 343 299.7 349.7 321.2C356.3 342.7 336.7 364.3 336 385.8C335.3 407.3 353.7 428.7 364.5 450C375.3 471.3 378.7 492.7 365.7 514.2C352.7 535.7 323.3 557.3 320.2 578.8C317 600.3 340 621.7 362.2 643C384.3 664.3 405.7 685.7 401.2 707C396.7 728.3 366.3 749.7 365.5 771.2C364.7 792.7 393.3 814.3 382.3 835.8C371.3 857.3 320.7 878.7 295.3 889.3L270 900L0 900L0 889.3C0 878.7 0 857.3 0 835.8C0 814.3 0 792.7 0 771.2C0 749.7 0 728.3 0 707C0 685.7 0 664.3 0 643C0 621.7 0 600.3 0 578.8C0 557.3 0 535.7 0 514.2C0 492.7 0 471.3 0 450C0 428.7 0 407.3 0 385.8C0 364.3 0 342.7 0 321.2C0 299.7 0 278.3 0 257C0 235.7 0 214.3 0 193C0 171.7 0 150.3 0 128.8C0 107.3 0 85.7 0 64.2C0 42.7 0 21.3 0 10.7L0 0Z" fill="#aab54c"></path><path d="M236 0L236.2 10.7C236.3 21.3 236.7 42.7 239.3 64.2C242 85.7 247 107.3 244.2 128.8C241.3 150.3 230.7 171.7 219.8 193C209 214.3 198 235.7 201.2 257C204.3 278.3 221.7 299.7 236.5 321.2C251.3 342.7 263.7 364.3 267.8 385.8C272 407.3 268 428.7 260.5 450C253 471.3 242 492.7 241.2 514.2C240.3 535.7 249.7 557.3 246.5 578.8C243.3 600.3 227.7 621.7 218.8 643C210 664.3 208 685.7 211.8 707C215.7 728.3 225.3 749.7 224 771.2C222.7 792.7 210.3 814.3 215.8 835.8C221.3 857.3 244.7 878.7 256.3 889.3L268 900L0 900L0 889.3C0 878.7 0 857.3 0 835.8C0 814.3 0 792.7 0 771.2C0 749.7 0 728.3 0 707C0 685.7 0 664.3 0 643C0 621.7 0 600.3 0 578.8C0 557.3 0 535.7 0 514.2C0 492.7 0 471.3 0 450C0 428.7 0 407.3 0 385.8C0 364.3 0 342.7 0 321.2C0 299.7 0 278.3 0 257C0 235.7 0 214.3 0 193C0 171.7 0 150.3 0 128.8C0 107.3 0 85.7 0 64.2C0 42.7 0 21.3 0 10.7L0 0Z" fill="#9eb04d"></path><path d="M251 0L241.8 10.7C232.7 21.3 214.3 42.7 204.8 64.2C195.3 85.7 194.7 107.3 189 128.8C183.3 150.3 172.7 171.7 183.8 193C195 214.3 228 235.7 224 257C220 278.3 179 299.7 165.8 321.2C152.7 342.7 167.3 364.3 183.8 385.8C200.3 407.3 218.7 428.7 223.5 450C228.3 471.3 219.7 492.7 216.8 514.2C214 535.7 217 557.3 216.2 578.8C215.3 600.3 210.7 621.7 194.3 643C178 664.3 150 685.7 139 707C128 728.3 134 749.7 146.3 771.2C158.7 792.7 177.3 814.3 184 835.8C190.7 857.3 185.3 878.7 182.7 889.3L180 900L0 900L0 889.3C0 878.7 0 857.3 0 835.8C0 814.3 0 792.7 0 771.2C0 749.7 0 728.3 0 707C0 685.7 0 664.3 0 643C0 621.7 0 600.3 0 578.8C0 557.3 0 535.7 0 514.2C0 492.7 0 471.3 0 450C0 428.7 0 407.3 0 385.8C0 364.3 0 342.7 0 321.2C0 299.7 0 278.3 0 257C0 235.7 0 214.3 0 193C0 171.7 0 150.3 0 128.8C0 107.3 0 85.7 0 64.2C0 42.7 0 21.3 0 10.7L0 0Z" fill="#93aa4f"></path><path d="M109 0L102 10.7C95 21.3 81 42.7 75.8 64.2C70.7 85.7 74.3 107.3 71.3 128.8C68.3 150.3 58.7 171.7 68.5 193C78.3 214.3 107.7 235.7 113.7 257C119.7 278.3 102.3 299.7 93.2 321.2C84 342.7 83 364.3 80.7 385.8C78.3 407.3 74.7 428.7 76.5 450C78.3 471.3 85.7 492.7 91.8 514.2C98 535.7 103 557.3 95.7 578.8C88.3 600.3 68.7 621.7 74.5 643C80.3 664.3 111.7 685.7 121.3 707C131 728.3 119 749.7 104.5 771.2C90 792.7 73 814.3 79.7 835.8C86.3 857.3 116.7 878.7 131.8 889.3L147 900L0 900L0 889.3C0 878.7 0 857.3 0 835.8C0 814.3 0 792.7 0 771.2C0 749.7 0 728.3 0 707C0 685.7 0 664.3 0 643C0 621.7 0 600.3 0 578.8C0 557.3 0 535.7 0 514.2C0 492.7 0 471.3 0 450C0 428.7 0 407.3 0 385.8C0 364.3 0 342.7 0 321.2C0 299.7 0 278.3 0 257C0 235.7 0 214.3 0 193C0 171.7 0 150.3 0 128.8C0 107.3 0 85.7 0 64.2C0 42.7 0 21.3 0 10.7L0 0Z" fill="#88a550"></path></svg>